# xmcd
#
# Track frame offsets: 
#        150
#        14848
#        28024
#        43975
#        59689
#        77784
#        90083
#        103332
#        115266
#        132436
#        145002
#        166142
#        183482
#        201708
#
# Disc length: 3099 seconds
#
# Revision: 0
# Processed by: cddbd v1.5.2PL0 Copyright (c) Steve Scherf et al.
# Submitted via: ExactAudioCopyFreeDBPlugin 1.0
#
DISCID=ce0c190e
DTITLE=Allen Stone - Radius
DYEAR=2015
DGENRE=Funk Soul
TTITLE0=Perfect World
TTITLE1=Fake Future
TTITLE2=American Privilege
TTITLE3=Circle
TTITLE4=Upside
TTITLE5=Freezer Burn
TTITLE6=Love
TTITLE7=Where You're At
TTITLE8=Symmetrical
TTITLE9=The Wire
TTITLE10=Guardian Angel
TTITLE11=Freedom
TTITLE12=Barbwire
TTITLE13=I Know That I Wasn't Right
EXTD=
EXTT0=
EXTT1=
EXTT2=
EXTT3=
EXTT4=
EXTT5=
EXTT6=
EXTT7=
EXTT8=
EXTT9=
EXTT10=
EXTT11=
EXTT12=
EXTT13=
PLAYORDER=
